<svg id="Grupo_7321" data-name="Grupo 7321" xmlns="http://www.w3.org/2000/svg" width="148.078" height="28.5"
  viewBox="0 0 148.078 28.5">
  <path id="Caminho_2641" data-name="Caminho 2641" d="M0,0V4.379H8.2L4.43,0Z" transform="translate(0 0)" />
  <path id="Caminho_2642" data-name="Caminho 2642" d="M22.667,6.423H7.6L3.829,2.045H22.667Z"
    transform="translate(4.369 2.332)" />
  <path id="Caminho_2643" data-name="Caminho 2643" d="M0,4.09V8.468H15.732L11.966,4.09Z"
    transform="translate(0 4.666)" />
  <path id="Caminho_2644" data-name="Caminho 2644" d="M18.652,10.513H11.116L7.348,6.134h11.3Z"
    transform="translate(8.384 6.998)" />
  <path id="Caminho_2645" data-name="Caminho 2645" d="M0,8.179v4.378H23.268L19.5,8.179Z"
    transform="translate(0 9.332)" />
  <path id="Caminho_2646" data-name="Caminho 2646" d="M14.636,14.6l-3.768-4.378h3.768Z"
    transform="translate(12.4 11.664)" />
  <g id="Grupo_7072" data-name="Grupo 7072" transform="translate(39.22 3.77)">
    <g id="Grupo_7291" data-name="Grupo 7291" transform="translate(0 0)">
      <path id="Caminho_2647" data-name="Caminho 2647"
        d="M18.319,11.123c0-5.457,4.19-9.362,9.827-9.362a9.353,9.353,0,0,1,7.448,3.207L32.9,7.452A5.823,5.823,0,0,0,28.354,5.33a5.554,5.554,0,0,0-5.793,5.793,5.553,5.553,0,0,0,5.793,5.793A5.761,5.761,0,0,0,32.9,14.769l2.691,2.483a9.309,9.309,0,0,1-7.474,3.233c-5.611,0-9.8-3.905-9.8-9.362"
        transform="translate(-18.319 -1.761)" />
      <path id="Caminho_2648" data-name="Caminho 2648"
        d="M40.841,10.942a6.63,6.63,0,0,1-6.81,6.81,6.645,6.645,0,0,1-6.808-6.81A6.622,6.622,0,0,1,34.03,4.157a6.608,6.608,0,0,1,6.81,6.785m-3.92,0a2.9,2.9,0,1,0-5.778,0,2.9,2.9,0,1,0,5.778,0"
        transform="translate(-8.161 0.973)" />
      <rect id="Ret창ngulo_2842" data-name="Ret창ngulo 2842" width="3.755" height="18.723"
        transform="translate(35.105 0.003)" />
      <rect id="Ret창ngulo_2843" data-name="Ret창ngulo 2843" width="3.755" height="18.723"
        transform="translate(42.172 0.003)" />
      <path id="Caminho_2649" data-name="Caminho 2649"
        d="M47.35,4.562a7.19,7.19,0,0,1,2.4.383,5.738,5.738,0,0,1,1.89,1.088,4.859,4.859,0,0,1,1.248,1.7,5.381,5.381,0,0,1,.445,2.214q0,.369-.013.642c-.009.182-.019.353-.036.518s-.039.334-.062.507-.062.375-.111.606H45.074a2.658,2.658,0,0,0,1.077,1.321,3.487,3.487,0,0,0,1.914.482,11.151,11.151,0,0,0,1.818-.135c.471-.075.861-.165,1.139-.238q.43,1.371.856,2.745a6.889,6.889,0,0,1-1.477.632,7.861,7.861,0,0,1-2.411.259,8.506,8.506,0,0,1-2.976-.482,6.129,6.129,0,0,1-2.175-1.334A5.645,5.645,0,0,1,41.5,13.46a6.91,6.91,0,0,1-.456-2.546,6.98,6.98,0,0,1,.469-2.608,5.922,5.922,0,0,1,1.31-2.015,5.664,5.664,0,0,1,2-1.285,6.971,6.971,0,0,1,2.522-.445m.122,3.04a2.492,2.492,0,0,0-1.693.567,2.736,2.736,0,0,0-.852,1.608H49.87a2.177,2.177,0,0,0-.7-1.595,2.457,2.457,0,0,0-1.693-.58"
        transform="translate(7.612 1.435)" />
      <path id="Caminho_2650" data-name="Caminho 2650"
        d="M53.563,4.562q1.163,0,2.064.049c.6.032,1.171.077,1.7.135s1.073.124,1.608.2,1.133.143,1.792.21V16.746a7.539,7.539,0,0,1-.458,2.693A5.512,5.512,0,0,1,58.926,21.5,6.075,6.075,0,0,1,56.7,22.824a9.324,9.324,0,0,1-3.113.471,12.257,12.257,0,0,1-2.126-.2,18.693,18.693,0,0,1-2.224-.544l.569-3.066c.692.133,1.338.246,1.94.347a10.494,10.494,0,0,0,1.691.148q3.141,0,3.263-2.991-.963.1-1.7.111c-.495.009-1.023.013-1.582.013a6.053,6.053,0,0,1-2.212-.409,5.428,5.428,0,0,1-1.867-1.21,5.871,5.871,0,0,1-1.3-1.965,6.922,6.922,0,0,1-.482-2.67A7.935,7.935,0,0,1,48,8.294,5.773,5.773,0,0,1,49.189,6.3a5.249,5.249,0,0,1,1.867-1.287,6.487,6.487,0,0,1,2.507-.456M54.281,7.8a2.566,2.566,0,0,0-2.162.878,3.58,3.58,0,0,0-.681,2.261,3.251,3.251,0,0,0,.2,1.15,2.669,2.669,0,0,0,.557.914,2.609,2.609,0,0,0,1.94.829c.33,0,.683-.009,1.062-.026s.882-.066,1.507-.148V7.923c-.411-.034-.811-.062-1.2-.088S54.709,7.8,54.281,7.8"
        transform="translate(15.041 1.435)" />
      <path id="Caminho_2651" data-name="Caminho 2651"
        d="M57.027,5.716A2,2,0,0,1,55.6,5.168a1.843,1.843,0,0,1-.58-1.4,1.9,1.9,0,0,1,.58-1.432,2.077,2.077,0,0,1,2.835,0,1.89,1.89,0,0,1,.589,1.432,1.887,1.887,0,0,1-.163.784,1.927,1.927,0,0,1-.437.608,2.118,2.118,0,0,1-.632.407,1.883,1.883,0,0,1-.76.152M59.019,20.47h-4V7.269h4Z"
        transform="translate(23.549 -1.745)" />
      <path id="Caminho_2652" data-name="Caminho 2652"
        d="M63.894,4.562c.561,0,1.079.011,1.556.036s.981.062,1.509.111,1.115.111,1.766.186,1.428.161,2.336.259V16.919H67.033V16.1a5.7,5.7,0,0,1-1.533.876,5.4,5.4,0,0,1-1.927.31,5.514,5.514,0,0,1-2.113-.422,5.286,5.286,0,0,1-1.816-1.235,6.118,6.118,0,0,1-1.274-2.012,7.362,7.362,0,0,1-.482-2.758,7.765,7.765,0,0,1,.456-2.569,5.971,5.971,0,0,1,1.2-1.989,5.268,5.268,0,0,1,1.867-1.287,6.427,6.427,0,0,1,2.483-.456M64.612,7.8a2.566,2.566,0,0,0-2.162.878,3.579,3.579,0,0,0-.681,2.261,3.164,3.164,0,0,0,.756,2.2,2.481,2.481,0,0,0,1.94.841,3.62,3.62,0,0,0,1.272-.235,4.4,4.4,0,0,0,1.3-.8V7.923c-.411-.034-.811-.062-1.2-.088S65.04,7.8,64.612,7.8"
        transform="translate(26.828 1.435)" />
      <path id="Caminho_2653" data-name="Caminho 2653" d="M67.2,5.752v3.4h-.963v-3.4h-1.33V4.831h3.629v.921Z"
        transform="translate(34.836 1.742)" />
      <path id="Caminho_2654" data-name="Caminho 2654"
        d="M70.829,9.156V6.289L69.7,9.156H68.92l-1.128-2.83v2.83h-.914V4.831h1.257l1.188,2.922,1.13-2.922h1.323V9.156Z"
        transform="translate(37.083 1.742)" />
    </g>
  </g>
</svg>