<svg xmlns="http://www.w3.org/2000/svg" xmlns:xlink="http://www.w3.org/1999/xlink" width="24" height="24"
  viewBox="0 0 24 24">
  <defs>
    <clipPath id="clip-path">
      <circle id="Elipse_56" data-name="Elipse 56" cx="12" cy="12" r="12" transform="translate(-0.057 -0.001)"
        fill="rgba(0,0,0,0)" />
    </clipPath>
  </defs>
  <g id="Capa_1" data-name="Capa 1" transform="translate(0.057 0.001)">
    <g id="Grupo_7040" data-name="Grupo 7040" clip-path="url(#clip-path)">
      <path id="Caminho_2685" data-name="Caminho 2685"
        d="M30.794,12.945V25.274c0,.173-.052.224-.425.224H-16.974c-.348,0-.406-.038-.406-.211V.611c0-.167.039-.218.4-.218Q6.713.393,30.426.38c.329,0,.38.038.38.2Q30.787,6.765,30.794,12.945Z"
        transform="translate(5.478 -1.301)" fill="#fff" />
      <path id="Caminho_2686" data-name="Caminho 2686"
        d="M21.1,15.948H10.67c-.53,0-.616.158-.616.659v9.114c0,.421-.113.533-.537.527q-2.094-.04-4.2,0c-.384,0-.49-.1-.484-.481v-9.16c0-.474-.086-.659-.616-.659H-16.624c-.4,0-.55-.059-.537-.507.033-1.4,0-2.812,0-4.215,0-.421.126-.487.51-.487H4.2c.623,0,.623,0,.623-.606V.914c0-.415.119-.5.51-.494h4.2c.391,0,.51.079.51.494v9.345c0,.435.126.527.543.527H31.58c.418,0,.577.072.563.533-.04,1.39-.033,2.779,0,4.169,0,.448-.133.514-.537.514C28.107,15.948,24.6,15.948,21.1,15.948Z"
        transform="translate(4.722 -1.315)" fill="#c7483d" />
      <path id="Caminho_2687" data-name="Caminho 2687" d="M-10.211.43H4.743c.232,0,.329.058.329.307V8.1L-10.23.513Z"
        transform="translate(2.937 -1.319)" fill="#347fc0" />
      <path id="Caminho_2688" data-name="Caminho 2688"
        d="M41.8.51,26.625,8.054c-.142-.1-.09-.224-.09-.32V.875c0-.231-.058-.455.329-.455H41.792Z"
        transform="translate(-10.128 -1.315)" fill="#347fc0" />
      <path id="Caminho_2689" data-name="Caminho 2689"
        d="M-9.9,35.372c.064-.147.213-.167.329-.224l14.283-7.1c.329-.167.464-.2.458.256v6.661c0,.295-.039.448-.4.448H-9.816a.22.22,0,0,1-.084-.038Z"
        transform="translate(2.819 -11.207)" fill="#347fc0" />
      <path id="Caminho_2690" data-name="Caminho 2690"
        d="M41.686,35.393H26.952c-.322,0-.432-.09-.432-.423V28.22c0-.275,0-.416.342-.25q7.283,3.631,14.58,7.25A2.256,2.256,0,0,1,41.686,35.393Z"
        transform="translate(-10.126 -11.195)" fill="#347fc0" />
      <path id="Caminho_2691" data-name="Caminho 2691"
        d="M27.51,8.709l1-.506L43.882.576A1.943,1.943,0,0,1,46.06.883c.271.25.3.371-.084.564C42.908,2.952,39.86,4.476,36.8,6L31.564,8.6a1.743,1.743,0,0,1-.806.2H27.536Z"
        transform="translate(-10.478 -1.298)" fill="#c7483e" />
      <path id="Caminho_2692" data-name="Caminho 2692"
        d="M-16.45,34.11l.413-.218,14.18-7.045a1.944,1.944,0,0,1,.889-.218H2.255c-.039.186-.206.186-.316.243l-15.875,7.884a2.064,2.064,0,0,1-2.514-.647Z"
        transform="translate(5.147 -10.74)" fill="#c7483d" />
      <path id="Caminho_2693" data-name="Caminho 2693"
        d="M33.35,26.65h3.513a.958.958,0,0,1,.438.141q5.543,2.754,11.086,5.5c.258.128.393.263.354.557a4.413,4.413,0,0,1-.071.64c-.206.692-.264.724-.9.41l-14-6.962-.413-.211Z"
        transform="translate(-12.554 -10.747)" fill="#c7483e" />
      <path id="Caminho_2694" data-name="Caminho 2694"
        d="M-1.811,9.349H-5.2a1.483,1.483,0,0,1-.645-.2q-5.388-2.7-10.751-5.316c-.38-.186-.554-.4-.49-.807V2.56c.09-.711.226-.775.857-.461L-2.263,9.016A.8.8,0,0,1-1.811,9.349Z"
        transform="translate(5.379 -1.855)" fill="#c7483e" />
    </g>
  </g>
</svg>