<svg xmlns="http://www.w3.org/2000/svg" xmlns:xlink="http://www.w3.org/1999/xlink" width="22.611" height="28.937" viewBox="0 0 22.611 28.937">
  <defs>
    <clipPath id="clip-path">
      <rect id="Ret창ngulo_2861" data-name="Ret창ngulo 2861" width="22.611" height="28.937" fill="#0160fd"/>
    </clipPath>
  </defs>
  <g id="Flag" transform="translate(0.001 -0.001)">
    <g id="Grupo_7283" data-name="Grupo 7283" transform="translate(-0.001 0.001)" clip-path="url(#clip-path)">
      <path id="Caminho_2702" data-name="Caminho 2702" d="M18.634,0l-1.66,2.773a4.575,4.575,0,0,1-1.466,1.637c-1.968,1.3-3.921.122-6.134,1.024a6.035,6.035,0,0,0-2.98,2.937L6.143,8.8,7.7,12.278a7.163,7.163,0,0,1,2.05-2.831,4.67,4.67,0,0,1,2.9-1.286c.089,0,.069,0,.262.007a8.617,8.617,0,0,0,4.059-.656,5.267,5.267,0,0,0,1.084-.691l2.4,5.079a4.725,4.725,0,0,1-.984.9c-2.072,1.4-4.128.3-6.134,1.024-.989.356-2.243,1.257-3.275,3.711l1.654,3.682,1.6-2.683a4.71,4.71,0,0,1,1.492-1.595c2.011-1.3,3.95-.129,6.131-1.031a5.974,5.974,0,0,0,2.958-2.988l.471-.783Z" transform="translate(-1.755 0)" fill="#0160fd"/>
      <rect id="Ret창ngulo_2860" data-name="Ret창ngulo 2860" width="3.565" height="21.149" transform="translate(0.001 9.643) rotate(-24.182)" fill="#0160fd"/>
    </g>
  </g>
</svg>
