<svg xmlns="http://www.w3.org/2000/svg" width="13.69" height="16.846" viewBox="0 0 13.69 16.846">
  <path id="Caminho_2736" data-name="Caminho 2736" d="M23.606,489.294h4.222v-1.856H23.606Zm0-3.942h5.8v-1.86h-5.8Zm0,0h5.8v-1.86h-5.8Zm0,3.942h4.222v-1.856H23.606Zm0,0h4.222v-1.856H23.606Zm0-3.942h5.8v-1.86h-5.8Zm0,0h5.8v-1.86h-5.8Zm0,3.942h4.222v-1.856H23.606Zm-3.946,7.1H33.35V479.55H19.66Zm11.834-1.856H21.516V481.406h9.977ZM29.4,483.492h-5.8v1.86h5.8Zm-1.576,3.946H23.606v1.856h4.222Zm-4.222,1.856h4.222v-1.856H23.606Zm0-3.942h5.8v-1.86h-5.8Zm0,0h5.8v-1.86h-5.8Zm0,3.942h4.222v-1.856H23.606Z" transform="translate(-19.66 -479.55)" fill="#fff" fill-rule="evenodd"/>
</svg>
