<svg xmlns="http://www.w3.org/2000/svg" width="25.227" height="19.113" viewBox="0 0 25.227 19.113">
  <g id="Grupo_7701" data-name="Grupo 7701" transform="translate(0 0.001)">
    <path id="Caminho_2256" data-name="Caminho 2256" d="M30.61,63.324c-2.354-4.423-6.822-9.194-12.327-9.266h-.059c-3.269,0-6.358,1.506-9.176,4.486-.307.316-.6.645-.879.987-.361.428-.712.884-1.055,1.348a21.649,21.649,0,0,0-1.542,2.669l-.09.185.095.185c2.629,4.937,6.493,8.242,10.6,9.067a9.085,9.085,0,0,0,1.849.185,12.72,12.72,0,0,0,9.04-4.365c.3-.32.591-.649.884-.987.383-.46.762-.951,1.127-1.456A21.8,21.8,0,0,0,30.619,63.7l.09-.189Zm-3.846,1.384c-.311.437-.645.866-1,1.285-.243.289-.5.568-.757.843-1.5,1.574-4.563,4.1-8.265,3.359-3.977-.8-6.7-4.338-8.026-6.515.2-.356.455-.785.708-1.136.293-.406.609-.807.924-1.186.239-.289.491-.573.757-.857,2.268-2.39,4.667-3.6,7.115-3.6h.032c4.617.072,7.909,4.527,9.216,6.669a13.283,13.283,0,0,1-.708,1.136" transform="translate(-5.482 -54.059)" fill="#b0b6c4"/>
    <path id="Caminho_2257" data-name="Caminho 2257" d="M32.476,69.815A4.482,4.482,0,1,1,28,65.338a4.486,4.486,0,0,1,4.477,4.477" transform="translate(-15.383 -60.252)" fill="#b0b6c4"/>
  </g>
</svg>
