<svg xmlns="http://www.w3.org/2000/svg" width="25.227" height="21.399" viewBox="0 0 25.227 21.399">
  <g id="Grupo_7701" data-name="Grupo 7701" transform="translate(0)">
    <path id="Caminho_2253" data-name="Caminho 2253" d="M2.16,23.841A7.338,7.338,0,0,0,6.8,24.5c3.977-.8,6.7-4.338,8.026-6.515-.2-.356-.455-.785-.708-1.136-.293-.406-.609-.807-.924-1.186-.239-.289-.491-.573-.758-.857-.14-.144-.275-.284-.415-.419l2.052-1.966c.144.14.284.284.424.428.307.316.6.645.879.987.361.428.712.884,1.055,1.348a21.65,21.65,0,0,1,1.542,2.669l.09.185-.095.185C15.344,23.16,11.48,26.465,7.368,27.29a9.086,9.086,0,0,1-1.849.185A11.068,11.068,0,0,1,0,25.911Z" transform="translate(7.16 -6.82)" fill="#b0b6c4"/>
    <path id="Caminho_2255" data-name="Caminho 2255" d="M7,15.3c-.383-.46-.762-.951-1.127-1.456A21.8,21.8,0,0,1,4.34,11.182l-.09-.189.1-.185C6.7,6.385,11.171,1.614,16.677,1.542h.059a10.9,10.9,0,0,1,5.6,1.583L25.6,0l1.966,2.052L24.666,4.825,22.606,6.8l-1.97,1.889-6.344,6.078-1.758,1.686-2.11,2.02L7.37,21.4,5.4,19.348l2.827-2.71c-.117-.113-.23-.23-.343-.347-.3-.32-.591-.649-.884-.987m2.187-1.826c.243.289.5.568.758.843.1.113.221.225.343.347l2.3-2.209a4.355,4.355,0,0,1-.212-1.353A4.481,4.481,0,0,1,18.4,6.9l1.772-1.7a7.865,7.865,0,0,0-3.436-.812H16.7c-4.617.072-7.909,4.527-9.216,6.669A13.283,13.283,0,0,0,8.2,12.192c.311.437.645.866,1,1.285" transform="translate(-4.25)" fill="#b0b6c4"/>
  </g>
</svg>
