<svg id="Grupo_7455" data-name="Grupo 7455" xmlns="http://www.w3.org/2000/svg"
  xmlns:xlink="http://www.w3.org/1999/xlink" width="15.403" height="15.403" viewBox="0 0 15.403 15.403">
  <defs>
    <clipPath id="clip-path">
      <rect id="Retângulo_2866" data-name="Retângulo 2866" width="15.403" height="15.403" fill="#b6b6b9" />
    </clipPath>
  </defs>
  <g id="Grupo_7105" data-name="Grupo 7105" clip-path="url(#clip-path)">
    <path id="Caminho_2710" data-name="Caminho 2710"
      d="M1.4,3.151A3.151,3.151,0,1,1,4.551,6.3,3.138,3.138,0,0,1,1.4,3.151m2.1,0A1.077,1.077,0,0,0,4.551,4.2,1.077,1.077,0,0,0,5.6,3.151,1.077,1.077,0,0,0,4.551,2.1,1.077,1.077,0,0,0,3.5,3.151m11.9,0A3.151,3.151,0,1,1,12.253,0,3.138,3.138,0,0,1,15.4,3.151m-2.1,0a1.05,1.05,0,1,0-2.1,0,1.05,1.05,0,1,0,2.1,0M0,11.2v4.2H2.1V11.2A1.4,1.4,0,0,1,3.5,9.8H6.3V7.7H3.5A3.467,3.467,0,0,0,0,11.2m7.7,4.2V11.2a3.467,3.467,0,0,1,3.5-3.5h4.2V9.8H11.2a1.4,1.4,0,0,0-1.4,1.4v4.2Z"
      transform="translate(0 0)" fill="#b6b6b9" fill-rule="evenodd" />
  </g>
</svg>