<svg id="Grupo_6303" data-name="Grupo 6303" xmlns="http://www.w3.org/2000/svg" width="17.809" height="17.909"
  viewBox="0 0 17.809 17.909">
  <g id="Grupo_6304" data-name="Grupo 6304" transform="translate(0 0)">
    <path id="Caminho_2175" data-name="Caminho 2175"
      d="M10.836,0a4.047,4.047,0,1,0,4.05,4.05A4.049,4.049,0,0,0,10.836,0m0,5.665A1.618,1.618,0,1,1,12.457,4.05a1.619,1.619,0,0,1-1.621,1.615"
      transform="translate(-4.357)" fill-rule="evenodd" />
    <path id="Caminho_2176" data-name="Caminho 2176"
      d="M8.1,25.165v2.429H4.858a2.428,2.428,0,0,0-2.429,2.423v4.05H0v-4.05a4.868,4.868,0,0,1,4.858-4.852Z"
      transform="translate(0 -16.157)" fill-rule="evenodd" />
    <path id="Caminho_2177" data-name="Caminho 2177"
      d="M27.141,25.165v8.9l2.429-2.429h5.665V25.165Zm5.665,4.044H29.57V27.593h3.237Z"
      transform="translate(-17.426 -16.157)" fill-rule="evenodd" />
  </g>
</svg>