<svg id="Grupo_6321" data-name="Grupo 6321" xmlns="http://www.w3.org/2000/svg" width="17.909" height="17.909"
  viewBox="0 0 17.909 17.909">
  <g id="Grupo_6322" data-name="Grupo 6322" transform="translate(0 0)">
    <path id="Caminho_2184" data-name="Caminho 2184"
      d="M1.628,3.663A3.663,3.663,0,1,1,5.291,7.326,3.648,3.648,0,0,1,1.628,3.663m2.442,0A1.252,1.252,0,0,0,5.291,4.884,1.252,1.252,0,0,0,6.512,3.663,1.252,1.252,0,0,0,5.291,2.442,1.252,1.252,0,0,0,4.07,3.663m13.839,0A3.663,3.663,0,1,1,14.246,0a3.648,3.648,0,0,1,3.663,3.663m-2.442,0a1.221,1.221,0,0,0-2.442,0,1.221,1.221,0,1,0,2.442,0M0,13.024v4.884H2.442V13.024A1.633,1.633,0,0,1,4.07,11.4H7.326V8.954H4.07A4.031,4.031,0,0,0,0,13.024m8.954,4.884V13.024a4.031,4.031,0,0,1,4.07-4.07h4.884V11.4H13.025A1.633,1.633,0,0,0,11.4,13.024v4.884Z"
      transform="translate(0 0)" fill-rule="evenodd" />
  </g>
</svg>