<svg xmlns="http://www.w3.org/2000/svg" width="21.434" height="13.902" viewBox="0 0 21.434 13.902">
  <g id="Grupo_6238" data-name="Grupo 6238" transform="translate(0)">
    <path id="Caminho_2122" data-name="Caminho 2122"
      d="M369.732,20.5a1.835,1.835,0,0,1,1.359.562,1.782,1.782,0,0,1,.544,1.312l-7.526,2.812-6.561-1.874V14.877h1.828l6.814,2.521a1.052,1.052,0,0,1,.731,1.05,1.068,1.068,0,0,1-.319.769,1.139,1.139,0,0,1-.806.347h-2.624l-1.64-.628-.309.881,1.949.684Zm-17.823-5.624h3.764v10.31h-3.764Z"
      transform="translate(-351.909 -11.284)" />
    <path id="Caminho_2123" data-name="Caminho 2123"
      d="M393.7,10.887V8.607h-2.452V6.156h-2.28V8.607h-2.453v2.28h2.452v2.452h2.28V10.887Z"
      transform="translate(-372.263 -6.156)" />
  </g>
</svg>