<svg id="Grupo_7317" data-name="Grupo 7317" xmlns="http://www.w3.org/2000/svg" width="17.688" height="17.451" viewBox="0 0 17.688 17.451">
  <path id="Caminho_2748" data-name="Caminho 2748" d="M17.687,13.191v1.973H0V13.191H1.762V7.083A7.081,7.081,0,0,1,10.913.309a4.856,4.856,0,0,0-.724,1.86,5.024,5.024,0,0,0-1.343-.182,5.1,5.1,0,0,0-5.1,5.1v6.108h10.2V7.309a4.916,4.916,0,0,0,1.984.025v5.857Z" transform="translate(0 0)" fill="#fff"/>
  <path id="Caminho_2749" data-name="Caminho 2749" d="M22.844,44.02a2.035,2.035,0,0,1-3.884,0Z" transform="translate(-12.059 -27.996)" fill="#fff"/>
  <path id="Caminho_2750" data-name="Caminho 2750" d="M38.42,2.908a2.909,2.909,0,0,1-5.8.3,2.749,2.749,0,0,1-.018-.3,2.91,2.91,0,0,1,5.82,0" transform="translate(-20.733 0)" fill="#0060fd"/>
</svg>
