<svg id="Grupo_7457" data-name="Grupo 7457" xmlns="http://www.w3.org/2000/svg"
  xmlns:xlink="http://www.w3.org/1999/xlink" width="12.754" height="15.093" viewBox="0 0 12.754 15.093">
  <defs>
    <clipPath id="clip-path">
      <rect id="Retângulo_2886" data-name="Retângulo 2886" width="12.754" height="15.093" transform="translate(0 0)"
        fill="#b6b6b9" />
    </clipPath>
  </defs>
  <g id="Grupo_7148" data-name="Grupo 7148" clip-path="url(#clip-path)">
    <path id="Caminho_2761" data-name="Caminho 2761"
      d="M12.18,8.761a10.7,10.7,0,0,0,.553-2.755A10.66,10.66,0,0,0,11.7.7L11.4.083,10.707.029A10.609,10.609,0,0,0,1.171,4.643c-.067.1-.137.2-.2.3a5.673,5.673,0,0,0-.779,4.6,5.887,5.887,0,0,0,1.541,2.621L.659,13.751l1.976,1.343,5.5-8.088L6.155,5.663,3.121,10.128A3.229,3.229,0,0,1,3,6.224c.047-.078.1-.157.155-.236A8.181,8.181,0,0,1,9.825,2.4a8.188,8.188,0,0,1-.883,7.525c-.054.079-.108.158-.165.235a3.2,3.2,0,0,1-2.826,1.459L4.474,13.791a5.819,5.819,0,0,0,2.25.2,5.683,5.683,0,0,0,3.987-2.418c.074-.1.144-.2.211-.3A10.656,10.656,0,0,0,12.18,8.761"
      transform="translate(0 0)" fill="#b6b6b9" />
  </g>
</svg>