<svg id="Confortable" xmlns="http://www.w3.org/2000/svg" width="39.996" height="71.099" viewBox="0 0 39.996 71.099">
  <g id="Grupo_5354" data-name="Grupo 5354" transform="translate(0)">
    <path id="Caminho_1551" data-name="Caminho 1551" d="M43.681,59.206A11.489,11.489,0,1,1,32.191,70.7a11.49,11.49,0,0,1,11.49-11.491Z" transform="translate(-15.174 -27.938)" fill="#a0bff8"/>
    <path id="Caminho_1552" data-name="Caminho 1552" d="M56.025,85.721a2.049,2.049,0,0,1-.767.862l-4.515,2.791V108.14H50.1V99.074l-3.172-1.961a1.251,1.251,0,0,1-.534-.714,1.247,1.247,0,0,1,.878.159v.005l2.828,1.75V86.472l-1.581-.978-.238-.148-1.353-.835a1.229,1.229,0,0,1-.534-.714,1.223,1.223,0,0,1,.878.164L50.1,85.71V81.122a10.823,10.823,0,0,1,.322-2.638,10.822,10.822,0,0,1,.322,2.638v7.491l4.171-2.585a2.057,2.057,0,0,1,1.11-.307" transform="translate(-21.868 -37.042)"/>
    <path id="Caminho_1553" data-name="Caminho 1553" d="M11.49,61.053A11.489,11.489,0,1,1,0,72.543a11.49,11.49,0,0,1,11.49-11.49Z" transform="translate(0 -28.81)" fill="#1e4bc1"/>
    <path id="Caminho_1554" data-name="Caminho 1554" d="M20.676,98.244a1.2,1.2,0,0,1-.534.714l-3.166,1.967v8.088h-.65V91.224l-4.51-2.8a2.05,2.05,0,0,1-.771-.856,2.054,2.054,0,0,1,1.11.307l4.171,2.585v-7.5a11.016,11.016,0,0,1,.322-2.633,10.785,10.785,0,0,1,.328,2.633V87.56L19.8,85.805a1.247,1.247,0,0,1,.878-.159,1.208,1.208,0,0,1-.534.714l-3.166,1.961v11.841L19.8,98.408a1.223,1.223,0,0,1,.878-.164" transform="translate(-5.206 -37.914)"/>
    <path id="Caminho_1555" data-name="Caminho 1555" d="M19.882,0A19.782,19.782,0,1,1,.1,19.782,19.782,19.782,0,0,1,19.882,0" transform="translate(-0.047)" fill="#285ef3"/>
    <path id="Caminho_1556" data-name="Caminho 1556" d="M35.427,64a1.609,1.609,0,0,1,.28.032.436.436,0,0,1-.042.116,2.106,2.106,0,0,1-.883,1.11l-5.455,3.383V86.792H28.211V51.939l-7.765-4.811a3.5,3.5,0,0,1-1.322-1.475,3.526,3.526,0,0,1,1.908.529l7.178,4.446V37.73a18.764,18.764,0,0,1,.561-4.536,18.758,18.758,0,0,1,.555,4.536v7.9l4.868-3.013a2.106,2.106,0,0,1,1.512-.28,2.077,2.077,0,0,1-.925,1.226l-5.455,3.383V67.328l4.868-3.013V64.31A2.069,2.069,0,0,1,35.427,64" transform="translate(-9.014 -15.694)"/>
  </g>
</svg>
