<svg xmlns="http://www.w3.org/2000/svg" width="12.933" height="17.701" viewBox="0 0 12.933 17.701">
  <g id="Grupo_7315" data-name="Grupo 7315" transform="translate(-0.001)">
    <path id="Caminho_2739" data-name="Caminho 2739" d="M31.718,201.11a3.862,3.862,0,1,0,3.862,3.862,3.866,3.866,0,0,0-3.862-3.862m0,5.762a1.9,1.9,0,1,1,1.9-1.9,1.9,1.9,0,0,1-1.9,1.9" transform="translate(-25.252 -201.11)" fill="#fff" fill-rule="evenodd"/>
    <path id="Caminho_2740" data-name="Caminho 2740" d="M33.633,230.955v3.858H31.671v-3.858a2.729,2.729,0,0,0-2.723-2.726H25.385a2.729,2.729,0,0,0-2.723,2.726v3.858H20.7v-3.858a4.691,4.691,0,0,1,4.685-4.685h3.564a4.691,4.691,0,0,1,4.685,4.685" transform="translate(-20.699 -217.112)" fill="#fff" fill-rule="evenodd"/>
  </g>
</svg>
