<svg id="Grupo_7458" data-name="Grupo 7458" xmlns="http://www.w3.org/2000/svg"
  xmlns:xlink="http://www.w3.org/1999/xlink" width="15.412" height="14.209" viewBox="0 0 15.412 14.209">
  <defs>
    <clipPath id="clip-path">
      <rect id="Retângulo_3070" data-name="Retângulo 3070" width="15.412" height="14.209" fill="#b6b6b9" />
    </clipPath>
  </defs>
  <g id="Grupo_7280" data-name="Grupo 7280" clip-path="url(#clip-path)">
    <path id="Caminho_2864" data-name="Caminho 2864"
      d="M2.875,3.624a.749.749,0,1,1,0-1.5h9.2V3h2.126V0H2.875A2.878,2.878,0,0,0,0,2.875V10.73a3.444,3.444,0,0,0,3.482,3.479h11.93V3.624Zm10.411,8.458h-9.8A1.323,1.323,0,0,1,2.126,10.73V5.646a2.689,2.689,0,0,0,.749.1H13.286Z"
      transform="translate(0 0)" fill="#b6b6b9" />
    <path id="Caminho_2865" data-name="Caminho 2865"
      d="M28.629,23.273a1.338,1.338,0,1,1-1.339-1.336,1.34,1.34,0,0,1,1.339,1.336"
      transform="translate(-17.094 -14.449)" fill="#b6b6b9" />
  </g>
</svg>