<svg id="Grupo_7282" data-name="Grupo 7282" xmlns="http://www.w3.org/2000/svg"
  xmlns:xlink="http://www.w3.org/1999/xlink" width="19.164" height="19.158" viewBox="0 0 19.164 19.158">
  <defs>
    <clipPath id="clip-path">
      <rect id="Retângulo_2859" data-name="Retângulo 2859" width="19.164" height="19.158" fill="none" />
    </clipPath>
  </defs>
  <g id="Grupo_7281" data-name="Grupo 7281" clip-path="url(#clip-path)">
    <path id="Caminho_2700" data-name="Caminho 2700"
      d="M13.4.79,13.374.781A9.58,9.58,0,0,0,5.74,18.354l.021.01A9.58,9.58,0,1,0,13.4.79m3.052,10.392L14,10.121a17.833,17.833,0,0,0,1.153-4.853,7.078,7.078,0,0,1,1.29,5.915M2.708,7.977,5.13,9.029a17.789,17.789,0,0,0-1.144,4.832A7.087,7.087,0,0,1,2.708,7.977M6.139,6.7,3.718,5.652A7.1,7.1,0,0,1,8.893,2.566,18.062,18.062,0,0,0,6.139,6.7m.624,9.337c-.37-.27-.569-2.587.685-6.005l3.226,1.4C8.889,15,7.1,16.072,6.764,16.042m1.7-8.33c1.634-3.246,3.459-4.685,3.918-4.607.3.245.633,2.41-.693,6.008ZM10.236,16.6a18.284,18.284,0,0,0,2.758-4.15l2.444,1.062a7.043,7.043,0,0,1-5.2,3.088"
      transform="translate(0 0)" />
  </g>
</svg>