<svg xmlns="http://www.w3.org/2000/svg" xmlns:xlink="http://www.w3.org/1999/xlink" width="24.81" height="24.803" viewBox="0 0 24.81 24.803">
  <defs>
    <clipPath id="clip-path">
      <rect id="Retângulo_2862" data-name="Retângulo 2862" width="24.81" height="24.803" fill="#0160fd"/>
    </clipPath>
  </defs>
  <g id="Planet" transform="translate(0 0)">
    <g id="Grupo_7285" data-name="Grupo 7285" transform="translate(0 0)" clip-path="url(#clip-path)">
      <path id="Caminho_2704" data-name="Caminho 2704" d="M12.4,0h-.03a12.4,12.4,0,0,0,0,24.8h.03A12.4,12.4,0,1,0,12.4,0m8.983,10.765H17.935A23.088,23.088,0,0,0,16.8,4.407a9.162,9.162,0,0,1,4.583,6.357M3.418,14.045H6.836A23.012,23.012,0,0,0,7.97,20.371a9.172,9.172,0,0,1-4.553-6.326m3.418-3.281H3.418A9.189,9.189,0,0,1,7.97,4.43a23.38,23.38,0,0,0-1.135,6.334m5.557,10.764c-.579-.129-2.01-2.778-2.284-7.483h4.552c-.282,5.154-1.857,7.346-2.269,7.483M10.11,10.764c.267-4.7,1.69-7.347,2.276-7.491.48.137,1.995,2.535,2.276,7.491Zm6.692,9.63a23.668,23.668,0,0,0,1.134-6.349h3.449A9.118,9.118,0,0,1,16.8,20.394" transform="translate(0 0)" fill="#0160fd"/>
    </g>
  </g>
</svg>
